<mxfile host="app.diagrams.net" modified="2024-03-20T21:14:35.302Z" agent="Mozilla/5.0 (Macintosh; Intel Mac OS X 10_15_7) AppleWebKit/537.36 (KHTML, like Gecko) Chrome/122.0.0.0 Safari/537.36" etag="w1V2L1jVru_O14isoHLs" version="24.0.1" type="device">
  <diagram name="Page-1" id="NzyuOWtsGtHJy-d5QUdm">
    <mxGraphModel dx="1147" dy="544" grid="1" gridSize="10" guides="1" tooltips="1" connect="1" arrows="1" fold="1" page="1" pageScale="1" pageWidth="850" pageHeight="1100" math="0" shadow="0">
      <root>
        <mxCell id="0" />
        <mxCell id="1" parent="0" />
        <mxCell id="HFd3CXtI0jl9UPQo1tIn-7" value="" style="edgeStyle=orthogonalEdgeStyle;rounded=0;orthogonalLoop=1;jettySize=auto;html=1;entryX=0.542;entryY=0;entryDx=0;entryDy=0;entryPerimeter=0;" edge="1" parent="1" source="HFd3CXtI0jl9UPQo1tIn-1" target="HFd3CXtI0jl9UPQo1tIn-3">
          <mxGeometry relative="1" as="geometry">
            <mxPoint x="490" y="180" as="targetPoint" />
          </mxGeometry>
        </mxCell>
        <mxCell id="HFd3CXtI0jl9UPQo1tIn-1" value="Start" style="rounded=1;whiteSpace=wrap;html=1;" vertex="1" parent="1">
          <mxGeometry x="430" y="40" width="120" height="60" as="geometry" />
        </mxCell>
        <mxCell id="HFd3CXtI0jl9UPQo1tIn-12" style="edgeStyle=orthogonalEdgeStyle;rounded=0;orthogonalLoop=1;jettySize=auto;html=1;entryX=0;entryY=0.5;entryDx=0;entryDy=0;" edge="1" parent="1" source="HFd3CXtI0jl9UPQo1tIn-2" target="HFd3CXtI0jl9UPQo1tIn-11">
          <mxGeometry relative="1" as="geometry" />
        </mxCell>
        <mxCell id="HFd3CXtI0jl9UPQo1tIn-16" value="" style="edgeStyle=orthogonalEdgeStyle;rounded=0;orthogonalLoop=1;jettySize=auto;html=1;" edge="1" parent="1" source="HFd3CXtI0jl9UPQo1tIn-2" target="HFd3CXtI0jl9UPQo1tIn-15">
          <mxGeometry relative="1" as="geometry" />
        </mxCell>
        <mxCell id="HFd3CXtI0jl9UPQo1tIn-2" value="If option = exit" style="rhombus;whiteSpace=wrap;html=1;" vertex="1" parent="1">
          <mxGeometry x="406.5" y="360" width="139" height="120" as="geometry" />
        </mxCell>
        <mxCell id="HFd3CXtI0jl9UPQo1tIn-3" value="Show Tasks" style="shape=parallelogram;perimeter=parallelogramPerimeter;whiteSpace=wrap;html=1;fixedSize=1;" vertex="1" parent="1">
          <mxGeometry x="409" y="140" width="150" height="70" as="geometry" />
        </mxCell>
        <mxCell id="HFd3CXtI0jl9UPQo1tIn-37" style="edgeStyle=orthogonalEdgeStyle;rounded=0;orthogonalLoop=1;jettySize=auto;html=1;" edge="1" parent="1" source="HFd3CXtI0jl9UPQo1tIn-4">
          <mxGeometry relative="1" as="geometry">
            <mxPoint x="800" y="240" as="targetPoint" />
          </mxGeometry>
        </mxCell>
        <mxCell id="HFd3CXtI0jl9UPQo1tIn-4" value="Add Task" style="rounded=0;whiteSpace=wrap;html=1;" vertex="1" parent="1">
          <mxGeometry x="460" y="510" width="120" height="60" as="geometry" />
        </mxCell>
        <mxCell id="HFd3CXtI0jl9UPQo1tIn-5" value="Show&amp;nbsp;&lt;br&gt;Add&lt;br&gt;Delete&lt;br&gt;Edit&lt;br&gt;Mark as done&lt;div&gt;Search&lt;/div&gt;" style="text;html=1;align=center;verticalAlign=middle;resizable=0;points=[];autosize=1;strokeColor=none;fillColor=none;" vertex="1" parent="1">
          <mxGeometry x="780" y="50" width="100" height="100" as="geometry" />
        </mxCell>
        <mxCell id="HFd3CXtI0jl9UPQo1tIn-10" style="edgeStyle=orthogonalEdgeStyle;rounded=0;orthogonalLoop=1;jettySize=auto;html=1;entryX=0.5;entryY=0;entryDx=0;entryDy=0;" edge="1" parent="1" source="HFd3CXtI0jl9UPQo1tIn-8" target="HFd3CXtI0jl9UPQo1tIn-2">
          <mxGeometry relative="1" as="geometry" />
        </mxCell>
        <mxCell id="HFd3CXtI0jl9UPQo1tIn-8" value="Choose Option" style="shape=parallelogram;perimeter=parallelogramPerimeter;whiteSpace=wrap;html=1;fixedSize=1;" vertex="1" parent="1">
          <mxGeometry x="401" y="247" width="150" height="70" as="geometry" />
        </mxCell>
        <mxCell id="HFd3CXtI0jl9UPQo1tIn-9" style="edgeStyle=orthogonalEdgeStyle;rounded=0;orthogonalLoop=1;jettySize=auto;html=1;entryX=0.553;entryY=-0.029;entryDx=0;entryDy=0;entryPerimeter=0;" edge="1" parent="1" source="HFd3CXtI0jl9UPQo1tIn-3" target="HFd3CXtI0jl9UPQo1tIn-8">
          <mxGeometry relative="1" as="geometry" />
        </mxCell>
        <mxCell id="HFd3CXtI0jl9UPQo1tIn-11" value="End" style="rounded=1;whiteSpace=wrap;html=1;" vertex="1" parent="1">
          <mxGeometry x="640" y="390" width="120" height="60" as="geometry" />
        </mxCell>
        <mxCell id="HFd3CXtI0jl9UPQo1tIn-13" value="No" style="text;html=1;align=center;verticalAlign=middle;resizable=0;points=[];autosize=1;strokeColor=none;fillColor=none;" vertex="1" parent="1">
          <mxGeometry x="380" y="380" width="40" height="30" as="geometry" />
        </mxCell>
        <mxCell id="HFd3CXtI0jl9UPQo1tIn-14" value="Yes" style="text;html=1;align=center;verticalAlign=middle;resizable=0;points=[];autosize=1;strokeColor=none;fillColor=none;" vertex="1" parent="1">
          <mxGeometry x="540" y="390" width="40" height="30" as="geometry" />
        </mxCell>
        <mxCell id="HFd3CXtI0jl9UPQo1tIn-17" style="edgeStyle=orthogonalEdgeStyle;rounded=0;orthogonalLoop=1;jettySize=auto;html=1;entryX=0;entryY=0.5;entryDx=0;entryDy=0;" edge="1" parent="1" source="HFd3CXtI0jl9UPQo1tIn-15" target="HFd3CXtI0jl9UPQo1tIn-3">
          <mxGeometry relative="1" as="geometry">
            <Array as="points">
              <mxPoint x="240" y="420" />
              <mxPoint x="240" y="175" />
            </Array>
          </mxGeometry>
        </mxCell>
        <mxCell id="HFd3CXtI0jl9UPQo1tIn-20" value="" style="edgeStyle=orthogonalEdgeStyle;rounded=0;orthogonalLoop=1;jettySize=auto;html=1;" edge="1" parent="1" source="HFd3CXtI0jl9UPQo1tIn-15" target="HFd3CXtI0jl9UPQo1tIn-19">
          <mxGeometry relative="1" as="geometry" />
        </mxCell>
        <mxCell id="HFd3CXtI0jl9UPQo1tIn-15" value="If Option = Show" style="rhombus;whiteSpace=wrap;html=1;" vertex="1" parent="1">
          <mxGeometry x="270" y="380" width="80" height="80" as="geometry" />
        </mxCell>
        <mxCell id="HFd3CXtI0jl9UPQo1tIn-18" value="Yes" style="text;html=1;align=center;verticalAlign=middle;resizable=0;points=[];autosize=1;strokeColor=none;fillColor=none;" vertex="1" parent="1">
          <mxGeometry x="240" y="390" width="40" height="30" as="geometry" />
        </mxCell>
        <mxCell id="HFd3CXtI0jl9UPQo1tIn-22" style="edgeStyle=orthogonalEdgeStyle;rounded=0;orthogonalLoop=1;jettySize=auto;html=1;entryX=0;entryY=0.5;entryDx=0;entryDy=0;" edge="1" parent="1" source="HFd3CXtI0jl9UPQo1tIn-19" target="HFd3CXtI0jl9UPQo1tIn-4">
          <mxGeometry relative="1" as="geometry" />
        </mxCell>
        <mxCell id="HFd3CXtI0jl9UPQo1tIn-26" value="" style="edgeStyle=orthogonalEdgeStyle;rounded=0;orthogonalLoop=1;jettySize=auto;html=1;" edge="1" parent="1" source="HFd3CXtI0jl9UPQo1tIn-19" target="HFd3CXtI0jl9UPQo1tIn-25">
          <mxGeometry relative="1" as="geometry" />
        </mxCell>
        <mxCell id="HFd3CXtI0jl9UPQo1tIn-19" value="If Option = Add" style="rhombus;whiteSpace=wrap;html=1;" vertex="1" parent="1">
          <mxGeometry x="270" y="500" width="80" height="80" as="geometry" />
        </mxCell>
        <mxCell id="HFd3CXtI0jl9UPQo1tIn-21" value="No" style="text;html=1;align=center;verticalAlign=middle;resizable=0;points=[];autosize=1;strokeColor=none;fillColor=none;" vertex="1" parent="1">
          <mxGeometry x="310" y="450" width="40" height="30" as="geometry" />
        </mxCell>
        <mxCell id="HFd3CXtI0jl9UPQo1tIn-24" value="Yes" style="text;html=1;align=center;verticalAlign=middle;resizable=0;points=[];autosize=1;strokeColor=none;fillColor=none;" vertex="1" parent="1">
          <mxGeometry x="350" y="508" width="40" height="30" as="geometry" />
        </mxCell>
        <mxCell id="HFd3CXtI0jl9UPQo1tIn-28" value="" style="edgeStyle=orthogonalEdgeStyle;rounded=0;orthogonalLoop=1;jettySize=auto;html=1;" edge="1" parent="1" source="HFd3CXtI0jl9UPQo1tIn-25" target="HFd3CXtI0jl9UPQo1tIn-27">
          <mxGeometry relative="1" as="geometry" />
        </mxCell>
        <mxCell id="HFd3CXtI0jl9UPQo1tIn-31" value="" style="edgeStyle=orthogonalEdgeStyle;rounded=0;orthogonalLoop=1;jettySize=auto;html=1;" edge="1" parent="1" source="HFd3CXtI0jl9UPQo1tIn-25" target="HFd3CXtI0jl9UPQo1tIn-30">
          <mxGeometry relative="1" as="geometry" />
        </mxCell>
        <mxCell id="HFd3CXtI0jl9UPQo1tIn-25" value="If Option = Delete" style="rhombus;whiteSpace=wrap;html=1;" vertex="1" parent="1">
          <mxGeometry x="270" y="640" width="80" height="80" as="geometry" />
        </mxCell>
        <mxCell id="HFd3CXtI0jl9UPQo1tIn-29" style="edgeStyle=orthogonalEdgeStyle;rounded=0;orthogonalLoop=1;jettySize=auto;html=1;exitX=1;exitY=0.5;exitDx=0;exitDy=0;entryX=1;entryY=0.5;entryDx=0;entryDy=0;" edge="1" parent="1" target="HFd3CXtI0jl9UPQo1tIn-3">
          <mxGeometry relative="1" as="geometry">
            <mxPoint x="581" y="695" as="sourcePoint" />
            <mxPoint x="650" y="180" as="targetPoint" />
            <Array as="points">
              <mxPoint x="801" y="695" />
              <mxPoint x="801" y="180" />
              <mxPoint x="549" y="180" />
            </Array>
          </mxGeometry>
        </mxCell>
        <mxCell id="HFd3CXtI0jl9UPQo1tIn-27" value="Delete Task" style="whiteSpace=wrap;html=1;" vertex="1" parent="1">
          <mxGeometry x="460" y="650" width="120" height="60" as="geometry" />
        </mxCell>
        <mxCell id="HFd3CXtI0jl9UPQo1tIn-33" value="" style="edgeStyle=orthogonalEdgeStyle;rounded=0;orthogonalLoop=1;jettySize=auto;html=1;" edge="1" parent="1" source="HFd3CXtI0jl9UPQo1tIn-30" target="HFd3CXtI0jl9UPQo1tIn-32">
          <mxGeometry relative="1" as="geometry" />
        </mxCell>
        <mxCell id="HFd3CXtI0jl9UPQo1tIn-42" value="" style="edgeStyle=orthogonalEdgeStyle;rounded=0;orthogonalLoop=1;jettySize=auto;html=1;" edge="1" parent="1" source="HFd3CXtI0jl9UPQo1tIn-30" target="HFd3CXtI0jl9UPQo1tIn-41">
          <mxGeometry relative="1" as="geometry" />
        </mxCell>
        <mxCell id="HFd3CXtI0jl9UPQo1tIn-30" value="If Option = Edit" style="rhombus;whiteSpace=wrap;html=1;" vertex="1" parent="1">
          <mxGeometry x="270" y="770" width="80" height="80" as="geometry" />
        </mxCell>
        <mxCell id="HFd3CXtI0jl9UPQo1tIn-39" style="edgeStyle=orthogonalEdgeStyle;rounded=0;orthogonalLoop=1;jettySize=auto;html=1;" edge="1" parent="1" source="HFd3CXtI0jl9UPQo1tIn-32">
          <mxGeometry relative="1" as="geometry">
            <mxPoint x="800" y="660" as="targetPoint" />
          </mxGeometry>
        </mxCell>
        <mxCell id="HFd3CXtI0jl9UPQo1tIn-32" value="Edit Task" style="whiteSpace=wrap;html=1;" vertex="1" parent="1">
          <mxGeometry x="460" y="780" width="120" height="60" as="geometry" />
        </mxCell>
        <mxCell id="HFd3CXtI0jl9UPQo1tIn-34" value="Yes" style="text;html=1;align=center;verticalAlign=middle;resizable=0;points=[];autosize=1;strokeColor=none;fillColor=none;" vertex="1" parent="1">
          <mxGeometry x="330" y="648" width="40" height="30" as="geometry" />
        </mxCell>
        <mxCell id="HFd3CXtI0jl9UPQo1tIn-35" value="No" style="text;html=1;align=center;verticalAlign=middle;resizable=0;points=[];autosize=1;strokeColor=none;fillColor=none;" vertex="1" parent="1">
          <mxGeometry x="310" y="708" width="40" height="30" as="geometry" />
        </mxCell>
        <mxCell id="HFd3CXtI0jl9UPQo1tIn-46" value="" style="edgeStyle=orthogonalEdgeStyle;rounded=0;orthogonalLoop=1;jettySize=auto;html=1;" edge="1" parent="1" source="HFd3CXtI0jl9UPQo1tIn-41" target="HFd3CXtI0jl9UPQo1tIn-45">
          <mxGeometry relative="1" as="geometry" />
        </mxCell>
        <mxCell id="HFd3CXtI0jl9UPQo1tIn-50" value="" style="edgeStyle=orthogonalEdgeStyle;rounded=0;orthogonalLoop=1;jettySize=auto;html=1;" edge="1" parent="1" source="HFd3CXtI0jl9UPQo1tIn-41" target="HFd3CXtI0jl9UPQo1tIn-49">
          <mxGeometry relative="1" as="geometry" />
        </mxCell>
        <mxCell id="HFd3CXtI0jl9UPQo1tIn-41" value="If Option = Search" style="rhombus;whiteSpace=wrap;html=1;" vertex="1" parent="1">
          <mxGeometry x="270" y="890" width="80" height="80" as="geometry" />
        </mxCell>
        <mxCell id="HFd3CXtI0jl9UPQo1tIn-43" value="Yes" style="text;html=1;align=center;verticalAlign=middle;resizable=0;points=[];autosize=1;strokeColor=none;fillColor=none;" vertex="1" parent="1">
          <mxGeometry x="330" y="778" width="40" height="30" as="geometry" />
        </mxCell>
        <mxCell id="HFd3CXtI0jl9UPQo1tIn-44" value="No" style="text;html=1;align=center;verticalAlign=middle;resizable=0;points=[];autosize=1;strokeColor=none;fillColor=none;" vertex="1" parent="1">
          <mxGeometry x="310" y="840" width="40" height="30" as="geometry" />
        </mxCell>
        <mxCell id="HFd3CXtI0jl9UPQo1tIn-47" style="edgeStyle=orthogonalEdgeStyle;rounded=0;orthogonalLoop=1;jettySize=auto;html=1;entryX=1;entryY=0.5;entryDx=0;entryDy=0;" edge="1" parent="1" source="HFd3CXtI0jl9UPQo1tIn-45" target="HFd3CXtI0jl9UPQo1tIn-8">
          <mxGeometry relative="1" as="geometry">
            <mxPoint x="850" y="700" as="targetPoint" />
            <Array as="points">
              <mxPoint x="860" y="930" />
              <mxPoint x="860" y="282" />
            </Array>
          </mxGeometry>
        </mxCell>
        <mxCell id="HFd3CXtI0jl9UPQo1tIn-45" value="Search" style="whiteSpace=wrap;html=1;" vertex="1" parent="1">
          <mxGeometry x="460" y="900" width="120" height="60" as="geometry" />
        </mxCell>
        <mxCell id="HFd3CXtI0jl9UPQo1tIn-48" value="Yes" style="text;html=1;align=center;verticalAlign=middle;resizable=0;points=[];autosize=1;strokeColor=none;fillColor=none;" vertex="1" parent="1">
          <mxGeometry x="340" y="898" width="40" height="30" as="geometry" />
        </mxCell>
        <mxCell id="HFd3CXtI0jl9UPQo1tIn-53" value="" style="edgeStyle=orthogonalEdgeStyle;rounded=0;orthogonalLoop=1;jettySize=auto;html=1;" edge="1" parent="1" source="HFd3CXtI0jl9UPQo1tIn-49" target="HFd3CXtI0jl9UPQo1tIn-52">
          <mxGeometry relative="1" as="geometry" />
        </mxCell>
        <mxCell id="HFd3CXtI0jl9UPQo1tIn-56" value="" style="edgeStyle=orthogonalEdgeStyle;rounded=0;orthogonalLoop=1;jettySize=auto;html=1;" edge="1" parent="1" source="HFd3CXtI0jl9UPQo1tIn-49" target="HFd3CXtI0jl9UPQo1tIn-55">
          <mxGeometry relative="1" as="geometry" />
        </mxCell>
        <mxCell id="HFd3CXtI0jl9UPQo1tIn-49" value="If Option = Mark as Done" style="rhombus;whiteSpace=wrap;html=1;" vertex="1" parent="1">
          <mxGeometry x="270" y="1020" width="80" height="80" as="geometry" />
        </mxCell>
        <mxCell id="HFd3CXtI0jl9UPQo1tIn-51" value="No" style="text;html=1;align=center;verticalAlign=middle;resizable=0;points=[];autosize=1;strokeColor=none;fillColor=none;" vertex="1" parent="1">
          <mxGeometry x="300" y="970" width="40" height="30" as="geometry" />
        </mxCell>
        <mxCell id="HFd3CXtI0jl9UPQo1tIn-54" style="edgeStyle=orthogonalEdgeStyle;rounded=0;orthogonalLoop=1;jettySize=auto;html=1;" edge="1" parent="1" source="HFd3CXtI0jl9UPQo1tIn-52">
          <mxGeometry relative="1" as="geometry">
            <mxPoint x="800" y="780" as="targetPoint" />
          </mxGeometry>
        </mxCell>
        <mxCell id="HFd3CXtI0jl9UPQo1tIn-52" value="Mark as Done" style="whiteSpace=wrap;html=1;" vertex="1" parent="1">
          <mxGeometry x="460" y="1030" width="120" height="60" as="geometry" />
        </mxCell>
        <mxCell id="HFd3CXtI0jl9UPQo1tIn-55" value="End" style="rounded=1;whiteSpace=wrap;html=1;" vertex="1" parent="1">
          <mxGeometry x="250" y="1150" width="120" height="60" as="geometry" />
        </mxCell>
        <mxCell id="HFd3CXtI0jl9UPQo1tIn-57" value="End" style="text;html=1;align=center;verticalAlign=middle;resizable=0;points=[];autosize=1;strokeColor=none;fillColor=none;" vertex="1" parent="1">
          <mxGeometry x="310" y="1100" width="40" height="30" as="geometry" />
        </mxCell>
      </root>
    </mxGraphModel>
  </diagram>
</mxfile>
